<?xml version="1.0" encoding="utf-8"?>
<!-- Generator: Adobe Illustrator 26.0.0, SVG Export Plug-In . SVG Version: 6.00 Build 0)  -->
<svg version="1.1" id="Layer_1" xmlns="http://www.w3.org/2000/svg" xmlns:xlink="http://www.w3.org/1999/xlink" x="0px" y="0px"
	 viewBox="0 0 630.3 158.9" style="enable-background:new 0 0 630.3 158.9;" xml:space="preserve">
<style type="text/css">
	.st0{fill:#1F1F1F;}
	.st1{fill:url(#SVGID_1_);}
	.st2{fill:#FF6600;}
</style>
<g>
	<path class="st0" d="M532.2,26.5c-4.7,0.3-9.3,0.5-14,0.7c-26.2,0.8-52.3,0.3-78.3-2.4c-24.3-2.5-48.6-5.4-73-7.9
		c-17.9-1.8-35.7-4.6-53.7-4.8c-28.6-0.3-56.3,4.7-83.5,13.1c-4.3,1.3-8.5,2.7-12.7,4.2s-8.4,3.1-12.6,4.7
		c-4.2,1.7-8.3,3.4-12.4,5.2c-2.1,0.9-4.1,1.8-6.1,2.8c-2.4,1.1-4.7,2.2-7.3,2.8c-0.6,0.1-0.4-1.6-0.3-1.9c0.4-1.6,1.8-2.2,3.1-2.9
		c1-0.6,2-1.1,3-1.7c2-1.1,4-2.3,6-3.5c0.5-0.3,1-0.6,1.6-0.9c3.9-2.3,7.9-4.5,11.9-6.6c1-0.5,2-1,3-1.5
		c22.5-11,46.4-18.6,71.3-22.9c13.4-2.3,27.2-3.2,40.8-3c13.8,0.2,27.4,2.1,41.1,3.7c14,1.7,28.1,3.3,42.1,5.1
		c1.3,0.2,2.7,0.3,4,0.5c25.6,3.1,51.2,6.6,76.8,9.5c7,0.8,14,1.5,21,2c7,0.6,13.8,1.5,20.8,2c3,0.2,6.2,0.1,9.2,0.6
		c0.4,0.1,0.8,0.2,1,0.5c0.1,0.2,0.1,0.5,0,0.7c-0.1,0.5-0.2,1-0.6,1.4c-0.4,0.3-1,0.4-1.5,0.4C532.6,26.5,532.4,26.5,532.2,26.5z"
		/>
	<path class="st0" d="M630.5,83c0,0-6.9-8.3-9.8-11.4c-0.3-0.3-0.6-0.6-0.8-0.8c-0.1-0.1-0.1-0.1-0.2-0.2c-0.8-0.8-1.6-1.5-2.5-2.2
		c-0.4-0.3-0.7-0.6-1.1-0.9c-2.3-1.8-4.9-3.3-7.5-4.5c-7.5-3.5-15.4-5.3-23.5-6.2c-19.5-2.3-38.9-1-58.3,1.4
		c-21.8,2.8-43.5,6.3-65.2,9.1c-7,0.9-14,1.5-21,2.1c-3.2,0.2-6.5,0.4-9.7,0.8c-2,0.2-3.9,0.4-6,0.5c-1.4,0.1-2.8-0.2-4.1-0.8
		c-0.7-0.4-1.5-1.3-0.5-1.8c2.9-1.5,6-1.9,9-2.7c3.4-0.9,6.8-1.6,10.2-2.4c1.9-0.4,3.8-0.9,5.7-1.3c6.8-1.6,13.5-3.2,20.3-4.8
		s13.6-3.1,20.4-4.5s13.6-2.8,20.5-4c2.4-0.4,4.8-0.8,7.2-1.2c18.4-3,37.1-4.4,55.7-3.2c14,0.9,27.8,3.3,40.3,10.1
		c4.8,2.6,9.2,5.9,12.8,10c2,2.3,3.7,4.9,5.1,7.7c0.5,1,0.9,2,1.3,3.1c0.2,0.5,0.4,1.1,0.6,1.6c0.1,0.2,0.1,0.3,0.2,0.5
		C630.1,78.4,630.6,80.7,630.5,83z"/>
	<path class="st0" d="M0,103.7c11.6-13,25.1-23.4,40-32.2c21.5-12.7,44.6-20.7,69.4-23.6c16.9-2,33.9-2.3,50.9-1.5
		c25.6,1.2,51.2,2.5,76.8,3.7c27.2,1.2,54.3,0.1,81.3-2.3c31.2-2.8,62.3-5.8,93.4-9c4.7-0.5,9.4-1,14-1.5c4.7-0.5,9.3-1.1,14-1.6
		c4.7-0.6,9.3-1.1,14-1.7c2.3-0.3,4.7-0.6,7-0.8c2.1-0.2,4.2-0.5,6.3-0.1c0.3,0,0.9,0.4,0.3,0.5c-1,0.2-2,0.4-3,0.6
		c-1.1,0.3-2.3,0.5-3.4,0.8c-2.3,0.5-4.6,1.1-6.8,1.6c-1.3,0.3-2.5,0.6-3.8,0.8c-31.4,6.7-63,12.1-94.9,16.5
		c-24.3,3.3-48.5,6.3-73,7.4c-22,1-43.9,0.9-65.9-0.2c-28.3-1.4-56.4-4.3-84.8-4.6c-49.1-0.6-92,15.6-130,45.9
		C1.3,102.8,0.6,103.2,0,103.7z"/>
	<path class="st0" d="M609.6,41.4L609.6,41.4c-0.2,0.2-0.3,0.2-0.4,0.2c-4.6,0.1-9.1-0.7-13.7-1.2c-3.3-0.4-6.7-0.6-10-0.8
		c-7-0.4-14-0.4-21-0.3c-7,0.2-14,0.6-21,1.1c-1.9,0.1-3.7,0.3-5.6,0.4c-23.6,2-46.9,6-69.9,11.3c-26,6-52.3,10-78.8,12.6
		c-31.2,3-62.5,4.3-93.8,3.7c-1.3,0-2.7-0.2-4-0.4c-0.4-0.1-0.8-0.5-1.1-0.7c-0.5-2,0.8-2.4,2.2-2.6c3.8-0.4,7.6-0.7,11.4-1
		c35.5-3.1,70.9-7.2,106.1-12.9c22.4-3.6,44.4-8.8,66.5-13.6c27.1-5.9,54.6-8.8,82.4-7.4c6.7,0.3,13.5,0.8,20.1,1.8
		c4.5,0.6,9,1.4,13.5,2.4c4.4,1,8.8,2.1,13.1,3.7c0.8,0.3,1.6,0.6,2.3,1.1c0.8,0.5,1.4,1.2,1.8,2C609.6,41,609.7,41.3,609.6,41.4z"
		/>
	
		<linearGradient id="SVGID_1_" gradientUnits="userSpaceOnUse" x1="195.2" y1="129.9444" x2="341.5896" y2="129.9444" gradientTransform="matrix(1 0 0 -1 0 160)">
		<stop  offset="0" style="stop-color:#FFFFFF"/>
		<stop  offset="0.7319" style="stop-color:#1F1F1F"/>
	</linearGradient>
	<path class="st1" d="M333,39.6c-46.4,4.8-91.9,6.4-137.8,2.1c6.6-2.9,13.1-6,19.8-8.5c21.3-8,43.2-13.2,65.8-15.6
		c14.3-1.5,28.5-2.5,42.8-0.8c4.2,0.5,8.6,1.4,12.6,2.9c5.6,2.2,6.9,6.6,3.6,11.7C337.9,34.3,335.3,36.9,333,39.6z"/>
	<path class="st0" d="M391.5,72.1c-0.5,0.3-1.3,0.4-1.9,0.5c-0.8,0.2-1.6,0.2-2.4,0.4c-1.7,0.3-3.4,0.6-5.2,0.9
		c-3.4,0.6-6.9,1.1-10.3,1.7c-0.3,0-0.6,0.1-0.8,0.1c-6.8,1.1-13.7,2-20.6,2.8c-6.8,0.8-13.7,1.4-20.5,1.9s-13.7,0.9-20.5,1.2
		c-3.8,0.1-7.5,0.3-11.3,0.3c-28.3,0.6-56.6-0.2-84.8-2.1C186.1,78,159.1,75.5,132,74c-26-1.4-51.9-1-77.4,5.7
		c-5.4,1.4-10.7,3.5-16.2,5c2.1-1.3,4.2-2.7,6.4-3.9C57,74.4,70.2,71,83.7,68.7c24-4,48.1-3.9,72.2-2.3c22.1,1.5,44.2,3.1,66.3,4.4
		c24.6,1.4,49.2,2.9,73.8,3.6c18.6,0.5,37.3,0,55.9-0.5c7-0.2,14.1-0.6,21.1-1c3.1-0.2,6.3-0.4,9.4-0.6c1.5-0.1,3-0.2,4.5-0.3
		c0.8,0,1.5,0,2.3,0C390,72,391,71.7,391.5,72.1z"/>
	<path class="st0" d="M475.8,99.6c-1,0.1-1.3-1.1-1.2-1.9c0.1-0.6,0.4-1.2,0.7-1.7c4.3-7.8,11.1-14,19-18c23.3-11.7,46.7-11.6,70,0
		c6.9,3.4,12.7,8.7,17,15c1,1.5,2,3,2.9,4.5c0.6,1-0.7,1.2-1.4,1.2c-0.9,0-1.8-0.3-2.6-0.8c-1.7-1-3-2.5-4.5-3.7
		c-1.4-1.1-2.9-2.2-4.5-3.2c-3-1.9-6.2-3.6-9.4-5.1c-7-3.2-14.6-5.3-22.3-6.2c-0.4-0.1-0.9-0.1-1.3-0.1c-11.8-1.2-23.8-0.2-35,3.7
		c-9.4,3.3-17.7,8.7-25.3,15.1C477.5,98.8,476.5,99.5,475.8,99.6z"/>
	<path class="st0" d="M82.6,102.6c4.7-13.6,23.6-24.5,42.3-24.8c19.5-0.3,39,10.6,45,25.9c-12.4-12.5-27-18.6-43.7-18.7
		C109.5,84.9,94.8,90.8,82.6,102.6z"/>
</g>
<g>
	<path class="st2" d="M67.6,134.8c1-2.9,2.9-4.4,5.5-4.4h19.2l-6.4,26.4h-6.3l1.8-7.3l3.2-13H73.9c-0.1,0-0.3,0.1-0.4,0.2
		s-0.3,0.3-0.3,0.5l-1.6,6.4H81l-1.5,6h-9.4l-1.8,7.3h-6.2L67.6,134.8z"/>
	<path class="st2" d="M100,136.4c-0.2,0-0.3,0.1-0.5,0.2c-0.1,0.1-0.2,0.2-0.3,0.4c0,0,0,0,0,0.1s0,0.1,0,0.1c0,0.1,0,0.2-0.1,0.3
		c0,0.1-0.1,0.3-0.1,0.5s-0.1,0.4-0.2,0.7s-0.1,0.6-0.2,1c0,0.2,0,0.5,0.2,0.6c0.1,0.2,0.3,0.3,0.6,0.3c0,0,0,0,0.1,0h0.1
		c0,0,0.1,0,0.3,0s0.3,0,0.4,0s0.4,0,0.6,0s0.6,0,0.9,0c0.4,0,0.8,0,1.2,0c0.5,0,1,0,1.6,0s1.2,0,2,0c0.7,0,1.5,0,2.4,0
		c1.8,0,3.2,0.7,4.2,2.1s1.4,2.9,1,4.7c0,0,0,0,0,0.1v0.1c0,0.1,0,0.1-0.1,0.3c0,0.1-0.1,0.3-0.1,0.4s-0.1,0.4-0.2,0.6
		s-0.1,0.6-0.2,0.9s-0.2,0.7-0.3,1.2c-0.1,0.4-0.2,1-0.4,1.5c-0.3,1.3-1,2.3-2,3.1s-2.2,1.2-3.6,1.2c0,0,0,0-0.1,0s-0.1,0-0.2,0
		s-0.2,0-0.3,0c-0.1,0-0.3,0-0.5,0s-0.5,0-0.8,0s-0.7,0-1.1,0s-0.9,0-1.5,0s-1.2,0-1.9,0s-1.5,0-2.4,0s-1.8,0-2.9,0s-2.2,0-3.5,0
		s-2.6,0-4.1,0c0,0,0,0,0-0.1c0,0,0-0.1,0-0.2c0-0.1,0-0.2,0.1-0.3s0.1-0.3,0.1-0.5c0.1-0.2,0.1-0.5,0.2-0.8s0.1-0.7,0.2-1.1
		c0.1-0.4,0.2-0.9,0.3-1.4c0.1-0.5,0.3-1.1,0.4-1.8c0,0,0,0,0.1,0h0.1c0.1,0,0.2,0,0.3,0c0.1,0,0.3,0,0.5,0s0.4,0,0.7,0s0.6,0,1,0
		s0.8,0,1.3,0s1,0,1.7,0c0.6,0,1.3,0,2.1,0c0.8,0,1.6,0,2.6,0s2,0,3.1,0s2.3,0,3.6,0c0.4,0,0.6-0.2,0.8-0.6c0,0,0,0,0-0.1v-0.1
		c0-0.1,0-0.2,0.1-0.3s0.1-0.3,0.1-0.5s0.1-0.4,0.2-0.7s0.1-0.6,0.2-1c0.1-0.2,0.1-0.4-0.1-0.6c-0.1-0.2-0.3-0.3-0.6-0.3l0,0
		c0,0,0,0-0.1,0h-0.1c-0.1,0-0.1,0-0.3,0s-0.3,0-0.5,0s-0.4,0-0.7,0s-0.6,0-0.9,0c-0.4,0-0.8,0-1.2,0s-1,0-1.6,0s-1.2,0-2,0
		c-0.7,0-1.5,0-2.4,0c-1.8,0-3.2-0.7-4.3-2c-1.1-1.3-1.4-2.9-1-4.8c0,0,0,0,0-0.1v-0.1c0-0.1,0-0.2,0.1-0.3c0-0.1,0.1-0.3,0.1-0.4
		c0-0.2,0.1-0.4,0.2-0.6c0.1-0.2,0.1-0.5,0.2-0.9c0.1-0.3,0.2-0.7,0.3-1.2c0.1-0.4,0.2-1,0.4-1.5c1.1-2.8,3-4.3,5.6-4.3
		c0,0,0,0,0.1,0c0,0,0.1,0,0.2,0s0.2,0,0.3,0s0.3,0,0.5,0s0.5,0,0.8,0s0.7,0,1.1,0s0.9,0,1.5,0s1.2,0,1.9,0c0.7,0,1.5,0,2.4,0
		s1.9,0,2.9,0s2.2,0,3.5,0s2.6,0,4.1,0c0,0,0,0,0,0.1c0,0,0,0.1,0,0.2c0,0.1,0,0.2-0.1,0.3c0,0.1-0.1,0.3-0.1,0.5
		c-0.1,0.2-0.1,0.5-0.2,0.7c-0.1,0.3-0.2,0.6-0.3,1.1s-0.2,0.9-0.4,1.4s-0.3,1.1-0.5,1.8c0,0,0,0-0.1,0s-0.1,0-0.1,0
		c-0.1,0-0.2,0-0.3,0s-0.3,0-0.5,0s-0.4,0-0.7,0s-0.6,0-1,0s-0.8,0-1.3,0s-1,0-1.7,0s-1.3,0-2.1,0s-1.6,0-2.5,0s-2,0-3.1,0
		C102.5,136.4,101.3,136.4,100,136.4z"/>
	<path class="st2" d="M119.2,134.8c1.1-2.9,2.9-4.4,5.5-4.4h1.7l-1.8,8l-0.5,2.1h10c0.3,0,0.6-0.1,0.9-0.3c0.3-0.2,0.4-0.5,0.5-0.8
		l0.2-1l0,0l1.8-8h6.4l-5.2,22c-1,2.9-2.8,4.4-5.5,4.4h-1.7l1.8-7.8l0.6-2.4h-10c-0.7,0-1.2,0.4-1.5,1.1l-0.2,0.7l-1.9,8.3H114
		L119.2,134.8z"/>
	<path class="st2" d="M162.9,148.2h-4.2l0,0l0,0l0,0l0,0c0,0,0,0,0,0.1v0.1c0,0.1,0,0.1,0,0.2s0,0.2-0.1,0.3c0,0.1-0.1,0.3-0.1,0.4
		c0,0.2-0.1,0.3-0.1,0.5s-0.1,0.4-0.2,0.7s-0.1,0.5-0.2,0.9c-0.1,0.3-0.2,0.6-0.2,1s-0.2,0.8-0.3,1.2s-0.2,0.9-0.3,1.4
		s-0.2,1.1-0.4,1.7h-6.6l5.2-22c1-2.9,2.9-4.3,5.6-4.3h12.8c1.8,0,3.3,0.7,4.4,2c1.1,1.4,1.5,2.9,1.2,4.7c-0.4,2-0.9,4.2-1.5,6.7
		c-0.3,1.3-1,2.3-2,3.1s-2.2,1.2-3.6,1.2h-2.4l5.2,8.5h-7L162.9,148.2z M171.9,141.6l1-4.2c0-0.2,0-0.4-0.2-0.6
		c-0.2-0.2-0.4-0.3-0.6-0.3H162c-0.1,0-0.3,0.1-0.5,0.2c-0.2,0.1-0.3,0.3-0.3,0.5l-1.1,5h11C171.5,142.1,171.8,141.9,171.9,141.6z"
		/>
	<path class="st2" d="M182,134.8c1.2-2.9,3.2-4.4,6-4.4c0,0,0,0,0.1,0h0.1c0.1,0,0.2,0,0.3,0s0.3,0,0.5,0s0.4,0,0.7,0s0.6,0,1,0
		s0.8,0,1.3,0s1.1,0,1.7,0c0.6,0,1.3,0,2.1,0s1.7,0,2.6,0c1,0,2,0,3.1,0c1.9,0,3.5,0.7,4.7,2c1.2,1.4,1.6,2.9,1.2,4.7c0,0,0,0,0,0.1
		c0,0,0,0.1,0,0.2c0,0.1,0,0.2-0.1,0.3c0,0.1-0.1,0.3-0.1,0.5s-0.1,0.5-0.2,0.8s-0.2,0.7-0.3,1.1c-0.1,0.4-0.2,0.9-0.4,1.5
		c-0.1,0.6-0.3,1.2-0.5,1.9s-0.4,1.5-0.6,2.4c-0.2,0.9-0.5,1.9-0.7,2.9s-0.5,2.2-0.9,3.5c-1,2.9-3,4.4-6,4.4c0,0,0,0-0.1,0
		s-0.1,0-0.1,0c-0.1,0-0.2,0-0.3,0s-0.3,0-0.5,0s-0.4,0-0.7,0s-0.6,0-1,0s-0.8,0-1.3,0s-1.1,0-1.7,0s-1.3,0-2.1,0s-1.7,0-2.6,0
		s-2,0-3.1,0c-2,0-3.6-0.7-4.8-2c-1.2-1.4-1.6-2.9-1.3-4.7c0,0,0,0,0-0.1c0,0,0-0.1,0-0.2c0-0.1,0-0.2,0.1-0.3s0.1-0.3,0.1-0.5
		c0.1-0.2,0.1-0.5,0.2-0.8c0.1-0.3,0.2-0.7,0.3-1.1c0.1-0.4,0.2-0.9,0.4-1.5c0.1-0.6,0.3-1.2,0.5-1.9s0.4-1.5,0.6-2.4
		s0.4-1.9,0.7-2.9C181.4,137.2,181.7,136,182,134.8z M196.7,150.7c0.4,0,0.7-0.2,0.8-0.6c0,0,0,0,0-0.1v-0.1c0-0.1,0-0.2,0.1-0.3
		c0-0.1,0.1-0.3,0.1-0.4c0-0.2,0.1-0.4,0.2-0.7c0.1-0.3,0.1-0.6,0.2-0.9c0.1-0.4,0.2-0.8,0.3-1.2c0.1-0.5,0.2-1,0.4-1.6
		s0.3-1.3,0.5-2s0.4-1.5,0.6-2.4c0.2-0.9,0.5-1.9,0.7-2.9c0-0.2,0-0.5-0.2-0.6c-0.1-0.2-0.4-0.3-0.7-0.3c0,0,0,0-0.1,0
		c0,0-0.1,0-0.2,0s-0.2,0-0.3,0s-0.3,0-0.5,0s-0.4,0-0.7,0s-0.6,0-1,0s-0.8,0-1.4,0s-1.1,0-1.7,0s-1.4,0-2.2,0s-1.7,0-2.6,0
		c-0.4,0-0.7,0.2-0.8,0.6c0,0,0,0,0,0.1v0.1c0,0.1,0,0.2-0.1,0.3s-0.1,0.3-0.1,0.4c0,0.2-0.1,0.4-0.2,0.7c-0.1,0.3-0.1,0.6-0.2,0.9
		c-0.1,0.4-0.2,0.8-0.3,1.2c-0.1,0.5-0.2,1-0.4,1.6s-0.3,1.3-0.5,2s-0.4,1.5-0.6,2.4c-0.2,0.9-0.5,1.9-0.7,2.9c0,0.2,0,0.5,0.2,0.6
		s0.4,0.3,0.6,0.3c0,0,0,0,0.1,0s0.1,0,0.2,0c0.1,0,0.2,0,0.3,0s0.3,0,0.5,0s0.4,0,0.7,0s0.6,0,1,0s0.8,0,1.4,0s1.1,0,1.7,0
		c0.6,0,1.4,0,2.2,0C194.9,150.7,195.8,150.7,196.7,150.7z"/>
	<path class="st2" d="M210.1,134.8c1-2.9,2.9-4.4,5.5-4.4h19.2l-6.4,26.4h-6.3l1.8-7.3l3.2-13h-10.6c-0.1,0-0.3,0.1-0.4,0.2
		s-0.3,0.3-0.3,0.5l-1.6,6.4h9.4l-1.5,6h-9.4l-1.8,7.3h-6.2L210.1,134.8z"/>
	<path class="st2" d="M231.8,152.1c0.3-1.4,0.7-2.8,1-4s0.6-2.4,0.8-3.4s0.5-2,0.7-2.8c0.2-0.9,0.4-1.6,0.6-2.3
		c0.2-0.7,0.3-1.3,0.4-1.9c0.1-0.6,0.2-1,0.4-1.4c0.1-0.4,0.2-0.8,0.3-1.1s0.1-0.6,0.2-0.8c0.1-0.2,0.1-0.4,0.1-0.5s0.1-0.2,0.1-0.3
		s0-0.1,0-0.2v-0.1c0.2-0.9,0.7-1.5,1.4-2.1c0.7-0.5,1.5-0.8,2.4-0.8c1.2,0,2.3,0,3.3,0s1.9,0,2.8,0c0.8,0,1.6,0,2.3,0s1.3,0,1.8,0
		s1,0,1.4,0s0.8,0,1.1,0s0.6,0,0.8,0s0.4,0,0.5,0s0.2,0,0.3,0s0.1,0,0.2,0h0.1c1.9,0,3.3,0.7,4.5,2s1.5,2.9,1.1,4.7
		c-0.3,1.3-0.6,2.4-0.8,3.5c-0.2,1.1-0.5,2-0.7,2.9s-0.4,1.7-0.6,2.4s-0.3,1.4-0.5,1.9c-0.1,0.6-0.2,1.1-0.4,1.5
		c-0.1,0.4-0.2,0.8-0.3,1.1c-0.1,0.3-0.1,0.6-0.2,0.8s-0.1,0.4-0.1,0.5s-0.1,0.2-0.1,0.3s0,0.1,0,0.2v0.1c-1,2.9-2.9,4.4-5.6,4.4
		c-1.6,0-3,0-4.3,0s-2.5,0-3.7,0s-2.1,0-3.1,0s-1.7,0-2.5,0c-0.7,0-1.4,0-2,0s-1.1,0-1.6,0s-0.8,0-1.2,0c-0.3,0-0.6,0-0.8,0
		s-0.4,0-0.6,0c-0.1,0-0.3,0-0.3,0c-0.1,0-0.1,0-0.2,0h-0.1C231.1,155.1,231.5,153.5,231.8,152.1z M251.2,147.7
		c0.2-0.9,0.4-1.8,0.6-2.6c0.2-0.8,0.4-1.5,0.5-2.1c0.2-0.6,0.3-1.2,0.4-1.7c0.1-0.5,0.2-0.9,0.3-1.3c0.1-0.4,0.2-0.7,0.2-1
		c0.1-0.3,0.1-0.5,0.2-0.7c0-0.2,0.1-0.4,0.1-0.5s0-0.2,0.1-0.3c0-0.1,0-0.1,0-0.1s0,0,0-0.1c0-0.2,0-0.5-0.2-0.6
		c-0.2-0.2-0.4-0.3-0.6-0.3c-1,0-1.9,0-2.7,0s-1.5,0-2.2,0s-1.2,0-1.8,0c-0.5,0-1,0-1.4,0s-0.7,0-1,0s-0.5,0-0.7,0s-0.4,0-0.5,0
		s-0.2,0-0.3,0s-0.1,0-0.2,0h-0.1c-0.3,1.2-0.6,2.3-0.8,3.3s-0.5,1.9-0.7,2.7s-0.4,1.6-0.5,2.2c-0.2,0.7-0.3,1.3-0.4,1.8
		c-0.1,0.5-0.2,1-0.3,1.4s-0.2,0.8-0.3,1.1s-0.1,0.5-0.2,0.7s-0.1,0.4-0.1,0.5s0,0.2-0.1,0.3c0,0.1,0,0.1,0,0.2c0,0,0,0,0,0.1
		c1.1,0,2.1,0,2.9,0c0.9,0,1.7,0,2.4,0s1.4,0,1.9,0c0.6,0,1.1,0,1.5,0s0.8,0,1.1,0s0.6,0,0.8,0s0.4,0,0.5,0s0.3,0,0.3,0s0.1,0,0.2,0
		h0.1C250.8,149.6,251,148.6,251.2,147.7z"/>
	<path class="st0" d="M279.9,136.4c-0.2,0-0.3,0.1-0.5,0.2c-0.1,0.1-0.2,0.2-0.3,0.4c0,0,0,0,0,0.1s0,0.1,0,0.1c0,0.1,0,0.2-0.1,0.3
		c0,0.1-0.1,0.3-0.1,0.5s-0.1,0.4-0.2,0.7s-0.1,0.6-0.2,1c0,0.2,0,0.5,0.2,0.6c0.1,0.2,0.3,0.3,0.6,0.3c0,0,0,0,0.1,0h0.1
		c0,0,0.1,0,0.3,0s0.3,0,0.4,0s0.4,0,0.6,0s0.6,0,0.9,0c0.4,0,0.8,0,1.2,0c0.5,0,1,0,1.6,0s1.2,0,2,0c0.7,0,1.5,0,2.4,0
		c1.8,0,3.2,0.7,4.2,2.1s1.4,2.9,1,4.7c0,0,0,0,0,0.1v0.1c0,0.1,0,0.1-0.1,0.3c0,0.1-0.1,0.3-0.1,0.4s-0.1,0.4-0.2,0.6
		s-0.1,0.6-0.2,0.9s-0.2,0.7-0.3,1.2c-0.1,0.4-0.2,1-0.4,1.5c-0.3,1.3-1,2.3-2,3.1s-2.2,1.2-3.6,1.2c0,0,0,0-0.1,0s-0.1,0-0.2,0
		s-0.2,0-0.3,0c-0.1,0-0.3,0-0.5,0s-0.5,0-0.8,0s-0.7,0-1.1,0s-0.9,0-1.5,0s-1.2,0-1.9,0s-1.5,0-2.4,0s-1.8,0-2.9,0s-2.2,0-3.5,0
		s-2.6,0-4.1,0c0,0,0,0,0-0.1c0,0,0-0.1,0-0.2c0-0.1,0-0.2,0.1-0.3s0.1-0.3,0.1-0.5c0.1-0.2,0.1-0.5,0.2-0.8s0.1-0.7,0.2-1.1
		c0.1-0.4,0.2-0.9,0.3-1.4c0.1-0.5,0.3-1.1,0.4-1.8c0,0,0,0,0.1,0h0.1c0.1,0,0.2,0,0.3,0c0.1,0,0.3,0,0.5,0s0.4,0,0.7,0s0.6,0,1,0
		s0.8,0,1.3,0s1,0,1.7,0c0.6,0,1.3,0,2.1,0c0.8,0,1.6,0,2.6,0s2,0,3.1,0s2.3,0,3.6,0c0.4,0,0.6-0.2,0.8-0.6c0,0,0,0,0-0.1v-0.1
		c0-0.1,0-0.2,0.1-0.3s0.1-0.3,0.1-0.5s0.1-0.4,0.2-0.7s0.1-0.6,0.2-1c0.1-0.2,0.1-0.4-0.1-0.6c-0.1-0.2-0.3-0.3-0.6-0.3l0,0
		c0,0,0,0-0.1,0h-0.1c-0.1,0-0.1,0-0.3,0s-0.3,0-0.5,0s-0.4,0-0.7,0s-0.6,0-0.9,0c-0.4,0-0.8,0-1.2,0s-1,0-1.6,0s-1.2,0-2,0
		c-0.7,0-1.5,0-2.4,0c-1.8,0-3.2-0.7-4.3-2c-1.1-1.3-1.4-2.9-1-4.8c0,0,0,0,0-0.1v-0.1c0-0.1,0-0.2,0.1-0.3c0-0.1,0.1-0.3,0.1-0.4
		c0-0.2,0.1-0.4,0.2-0.6c0.1-0.2,0.1-0.5,0.2-0.9c0.1-0.3,0.2-0.7,0.3-1.2c0.1-0.4,0.2-1,0.4-1.5c1.1-2.8,3-4.3,5.6-4.3
		c0,0,0,0,0.1,0c0,0,0.1,0,0.2,0s0.2,0,0.3,0s0.3,0,0.5,0s0.5,0,0.8,0s0.7,0,1.1,0s0.9,0,1.5,0s1.2,0,1.9,0c0.7,0,1.5,0,2.4,0
		s1.9,0,2.9,0s2.2,0,3.5,0s2.6,0,4.1,0c0,0,0,0,0,0.1c0,0,0,0.1,0,0.2c0,0.1,0,0.2-0.1,0.3c0,0.1-0.1,0.3-0.1,0.5
		c-0.1,0.2-0.1,0.5-0.2,0.7c-0.1,0.3-0.2,0.6-0.3,1.1s-0.2,0.9-0.4,1.4s-0.3,1.1-0.5,1.8c0,0,0,0-0.1,0s-0.1,0-0.1,0
		c-0.1,0-0.2,0-0.3,0s-0.3,0-0.5,0s-0.4,0-0.7,0s-0.6,0-1,0s-0.8,0-1.3,0s-1,0-1.7,0s-1.3,0-2.1,0s-1.6,0-2.5,0s-2,0-3.1,0
		C282.4,136.4,281.2,136.4,279.9,136.4z"/>
	<path class="st0" d="M299.1,134.8c1-2.9,2.9-4.4,5.6-4.4h18.2l-1.4,6h-10.6h-5.1c-0.1,0-0.3,0.1-0.5,0.2c-0.2,0.1-0.3,0.3-0.3,0.5
		l-0.8,3.5h10.7l-1.3,6h-10.7l-0.7,3.2c0,0.2,0,0.5,0.2,0.6c0.2,0.2,0.4,0.3,0.6,0.3h8.1l0,0h7.2c-0.4,1.8-0.9,3.8-1.4,6h-15.5
		c-1.9,0-3.3-0.7-4.5-2c-1.1-1.4-1.5-2.9-1.2-4.7L299.1,134.8z"/>
	<path class="st0" d="M332.1,148.2h-4.2l0,0l0,0l0,0l0,0c0,0,0,0,0,0.1v0.1c0,0.1,0,0.1,0,0.2s0,0.2-0.1,0.3c0,0.1-0.1,0.3-0.1,0.4
		c0,0.2-0.1,0.3-0.1,0.5s-0.1,0.4-0.2,0.7s-0.1,0.5-0.2,0.9c-0.1,0.3-0.2,0.6-0.2,1s-0.2,0.8-0.3,1.2c-0.1,0.4-0.2,0.9-0.3,1.4
		s-0.2,1.1-0.4,1.7h-6.6l5.2-22c1-2.9,2.9-4.3,5.6-4.3H343c1.8,0,3.3,0.7,4.4,2s1.5,2.9,1.2,4.7c-0.4,2-0.9,4.2-1.5,6.7
		c-0.3,1.3-1,2.3-2,3.1s-2.2,1.2-3.6,1.2h-2.4l5.2,8.5h-7L332.1,148.2z M341.1,141.6l1-4.2c0-0.2,0-0.4-0.2-0.6
		c-0.2-0.2-0.4-0.3-0.6-0.3h-10.1c-0.1,0-0.3,0.1-0.5,0.2c-0.2,0.1-0.3,0.3-0.3,0.5l-1.1,5h11C340.8,142.1,341,141.9,341.1,141.6z"
		/>
	<path class="st0" d="M358.4,156.8c-1.5,0-2.8-0.5-3.8-1.5c-1.1-1-1.6-2.2-1.8-3.7l-1.3-21.1h6.3l1.1,19.8l9.6-19.8h6.4l-12.8,26.4
		L358.4,156.8L358.4,156.8z"/>
	<path class="st0" d="M374.9,134.8c1.1-2.9,3-4.4,5.6-4.4h1.7l-6.4,26.4h-6.3L374.9,134.8z"/>
	<path class="st0" d="M383.7,134.8c1-2.9,2.9-4.4,5.6-4.4h18.2l-1.5,6h-10.6h-5.1c-0.1,0-0.3,0.1-0.5,0.2s-0.3,0.3-0.3,0.5
		l-3.1,12.7c0,0.2,0,0.5,0.2,0.6s0.4,0.3,0.6,0.3h8.1l0,0h7.2c-0.4,1.8-0.9,3.8-1.5,6h-15.6c-1.8,0-3.3-0.7-4.5-2
		c-1.1-1.4-1.5-2.9-1.1-4.7L383.7,134.8z"/>
	<path class="st0" d="M409.3,134.8c1-2.9,2.9-4.4,5.6-4.4h18.2l-1.4,6h-10.6H416c-0.1,0-0.3,0.1-0.5,0.2c-0.2,0.1-0.3,0.3-0.3,0.5
		l-0.8,3.5h10.7l-1.3,6h-10.7l-0.7,3.2c0,0.2,0,0.5,0.2,0.6s0.4,0.3,0.6,0.3h8.1l0,0h7.2c-0.4,1.8-0.9,3.8-1.4,6h-15.5
		c-1.8,0-3.3-0.7-4.5-2c-1.1-1.4-1.5-2.9-1.2-4.7L409.3,134.8z"/>
	<path class="st0" d="M445.4,134.8c1-2.9,2.9-4.4,5.6-4.4h18.2l-1.5,6h-10.6H452c-0.1,0-0.3,0.1-0.5,0.2s-0.3,0.3-0.3,0.5l-3.1,12.7
		c0,0.2,0,0.5,0.2,0.6s0.4,0.3,0.6,0.3h8.1l0,0h7.2c-0.4,1.8-0.9,3.8-1.5,6h-15.6c-1.8,0-3.3-0.7-4.5-2c-1.1-1.4-1.5-2.9-1.1-4.7
		L445.4,134.8z"/>
	<path class="st0" d="M471,134.8c1-2.9,2.9-4.4,5.6-4.4h18.2l-1.4,6h-10.6h-5.1c-0.1,0-0.3,0.1-0.5,0.2c-0.2,0.1-0.3,0.3-0.3,0.5
		l-0.8,3.5h10.7l-1.3,6h-10.7l-0.7,3.2c0,0.2,0,0.5,0.2,0.6s0.4,0.3,0.6,0.3h8.1l0,0h7.2c-0.4,1.8-0.9,3.8-1.4,6h-15.5
		c-1.8,0-3.3-0.7-4.5-2c-1.1-1.4-1.5-2.9-1.2-4.7L471,134.8z"/>
	<path class="st0" d="M496.6,134.8c1.1-2.9,2.9-4.4,5.5-4.4h1.7l11.3,13.7l3.4-13.7h6.3l-6.6,26.4H512l1.1-4.9l-11.2-13.6l-4.3,18.5
		h-6.3L496.6,134.8z"/>
	<path class="st0" d="M533.8,136.4h-8.7l1.5-6H550l-1.5,6H540l-4.3,20.4h-6.3L533.8,136.4z"/>
	<path class="st0" d="M558.6,148.2h-4.2l0,0l0,0l0,0l0,0c0,0,0,0,0,0.1v0.1c0,0.1,0,0.1,0,0.2s0,0.2-0.1,0.3c0,0.1-0.1,0.3-0.1,0.4
		c0,0.2-0.1,0.3-0.1,0.5s-0.1,0.4-0.2,0.7c-0.1,0.3-0.1,0.5-0.2,0.9s-0.2,0.6-0.2,1s-0.2,0.8-0.3,1.2s-0.2,0.9-0.3,1.4
		s-0.2,1.1-0.4,1.7H546l5.2-22c1-2.9,2.9-4.3,5.6-4.3h12.8c1.8,0,3.3,0.7,4.4,2s1.5,2.9,1.2,4.7c-0.4,2-0.9,4.2-1.5,6.7
		c-0.3,1.3-1,2.3-2,3.1s-2.2,1.2-3.6,1.2h-2.4l5.2,8.5h-7L558.6,148.2z M567.7,141.6l1-4.2c0-0.2,0-0.4-0.2-0.6
		c-0.2-0.2-0.4-0.3-0.6-0.3h-10.1c-0.1,0-0.3,0.1-0.5,0.2s-0.3,0.3-0.3,0.5l-1.1,5h11C567.3,142.1,567.6,141.9,567.7,141.6z"/>
	<path class="st0" d="M577.7,134.8c1-2.9,2.9-4.4,5.6-4.4h18.2l-1.4,6h-10.6h-5.1c-0.1,0-0.3,0.1-0.5,0.2c-0.2,0.1-0.3,0.3-0.3,0.5
		l-0.8,3.5h10.7l-1.3,6h-10.7l-0.7,3.2c0,0.2,0,0.5,0.2,0.6s0.4,0.3,0.6,0.3h8.1l0,0h7.2c-0.4,1.8-0.9,3.8-1.4,6H580
		c-1.8,0-3.3-0.7-4.5-2c-1.1-1.4-1.5-2.9-1.2-4.7L577.7,134.8z"/>
</g>
</svg>
